<?xml version="1.0" standalone="no"?>
<!DOCTYPE svg PUBLIC "-//W3C//DTD SVG 20010904//EN"
 "http://www.w3.org/TR/2001/REC-SVG-20010904/DTD/svg10.dtd">
<svg version="1.0" xmlns="http://www.w3.org/2000/svg"
 width="500.000000pt" height="500.000000pt" viewBox="0 0 500.000000 500.000000"
 preserveAspectRatio="xMidYMid meet">

<g transform="translate(0.000000,500.000000) scale(0.100000,-0.100000)"
fill="#000000" stroke="none">
<path d="M0 2500 l0 -2500 2500 0 2500 0 0 2500 0 2500 -2500 0 -2500 0 0
-2500z m3221 1657 c38 -29 39 -44 39 -522 l0 -467 -29 -29 c-16 -16 -40 -29
-53 -29 -21 0 -26 -8 -41 -65 -17 -65 -17 -66 3 -92 17 -21 20 -40 20 -115 0
-81 -2 -91 -25 -113 -24 -25 -25 -25 -224 -25 -110 0 -207 3 -216 6 -53 21
-63 224 -12 256 8 5 1 28 -23 77 l-34 71 -163 0 c-136 0 -163 -2 -163 -15 0
-8 -11 -49 -25 -92 -24 -77 -24 -78 -5 -98 17 -18 20 -36 20 -115 0 -82 -3
-96 -22 -117 -21 -23 -25 -23 -227 -23 -259 0 -251 -4 -251 141 0 54 4 101 10
104 23 14 10 130 -25 235 -34 102 -35 107 -35 265 0 152 1 164 23 196 12 19
35 40 50 47 l27 13 0 229 0 228 26 31 26 31 656 0 c501 -1 661 -4 673 -13z
m-2380 -1642 c19 -10 35 -19 37 -20 2 -2 -4 -17 -13 -35 -13 -26 -21 -31 -38
-25 -45 14 -142 16 -167 3 -94 -50 -94 -215 1 -264 32 -16 113 -16 166 1 17 6
25 1 38 -25 9 -18 15 -33 13 -35 -2 -1 -18 -10 -35 -19 -77 -39 -189 -28 -261
24 -110 80 -113 285 -6 366 71 54 190 67 265 29z m1749 -210 l0 -225 -45 0
-45 0 0 225 0 225 45 0 45 0 0 -225z m820 185 l0 -40 -75 0 -75 0 0 -185 0
-185 -45 0 -45 0 0 185 0 185 -70 0 -70 0 0 40 0 40 190 0 190 0 0 -40z m1090
-185 l0 -225 -45 0 -45 0 0 225 0 225 45 0 45 0 0 -225z m-2750 145 l0 -50 60
0 60 0 0 -40 0 -40 -60 0 -60 0 0 -64 c0 -79 13 -96 76 -96 l44 0 0 -40 0 -40
-70 0 c-121 0 -140 21 -140 155 l0 85 -30 0 c-28 0 -30 2 -30 40 0 38 2 40 30
40 29 0 30 1 30 50 l0 50 45 0 45 0 0 -50z m2180 0 l0 -50 60 0 60 0 0 -40 0
-40 -60 0 -60 0 0 -64 c0 -79 13 -96 76 -96 l44 0 0 -40 0 -40 -70 0 c-121 0
-140 21 -140 155 l0 85 -30 0 c-28 0 -30 2 -30 40 0 38 2 40 30 40 29 0 30 1
30 50 l0 50 45 0 45 0 0 -50z m-2766 -60 c105 -51 123 -185 38 -271 -65 -64
-173 -65 -243 -2 -61 56 -75 130 -36 203 43 82 153 114 241 70z m356 5 c54
-28 60 -47 60 -187 l0 -128 -45 0 -45 0 0 113 c0 75 -4 117 -12 125 -7 7 -31
12 -55 12 l-43 0 0 -125 0 -125 -45 0 -45 0 0 159 0 160 33 4 c81 10 169 6
197 -8z m854 -5 c105 -51 123 -185 38 -271 -65 -64 -173 -65 -243 -2 -61 56
-75 130 -36 203 43 82 153 114 241 70z m504 -7 c36 -27 59 -69 68 -121 l7 -42
-122 0 -121 0 11 -24 c21 -44 89 -59 143 -31 16 9 30 14 31 13 0 -2 9 -16 19
-32 18 -28 18 -30 0 -43 -51 -37 -142 -42 -204 -10 -63 31 -90 76 -90 146 0
111 66 175 173 168 38 -2 67 -10 85 -24z m827 -7 c97 -74 84 -226 -24 -283
-109 -57 -243 4 -258 117 -8 56 4 105 34 141 38 45 77 60 149 56 49 -2 69 -8
99 -31z m599 20 c59 -24 66 -45 66 -187 l0 -126 -46 -7 c-159 -21 -254 15
-254 96 0 67 45 98 145 98 56 0 65 2 65 18 0 10 -5 23 -12 30 -14 14 -106 16
-142 2 -22 -8 -26 -7 -26 10 0 36 19 68 42 73 51 10 130 6 162 -7z m-2214 -36
c0 -37 -2 -40 -27 -40 -73 0 -73 -1 -73 -126 l0 -114 -45 0 -45 0 0 154 0 155
28 4 c15 2 57 5 95 6 l67 1 0 -40z m-824 -432 c2 -3 2 -12 -1 -21 -5 -12 -13
-13 -36 -7 -69 20 -81 -21 -15 -50 53 -22 70 -48 56 -84 -11 -30 -45 -41 -101
-33 -47 6 -51 9 -44 29 5 12 13 13 46 4 32 -8 42 -7 55 6 20 20 13 34 -23 43
-49 11 -73 33 -73 65 0 41 33 63 88 57 24 -3 45 -7 48 -9z m1082 -90 l-3 -103
-47 -3 c-59 -4 -88 21 -88 73 0 44 29 75 70 75 25 0 30 4 30 23 0 27 7 37 27
37 11 0 13 -21 11 -102z m376 92 c43 -16 23 -38 -30 -32 -56 6 -84 -16 -84
-64 0 -51 48 -86 90 -64 28 15 26 40 -5 40 -16 0 -25 6 -25 15 0 11 11 15 40
15 l40 0 0 -49 c0 -42 -3 -49 -22 -55 -91 -24 -158 17 -158 96 0 85 70 130
154 98z m986 -89 c0 -108 -2 -111 -64 -111 -64 0 -100 54 -72 109 16 31 34 41
72 41 20 0 24 5 24 30 0 23 4 30 20 30 19 0 20 -7 20 -99z m-2380 74 c0 -8 -7
-15 -15 -15 -8 0 -15 7 -15 15 0 8 7 15 15 15 8 0 15 -7 15 -15z m1993 -1 c-5
-14 -93 -18 -93 -4 0 14 13 18 55 18 31 -1 42 -5 38 -14z m-1773 -13 c0 -14 8
-21 27 -23 17 -2 29 -10 31 -20 3 -14 -3 -18 -28 -18 -29 0 -31 -2 -28 -32 2
-25 9 -34 28 -38 14 -3 26 -14 28 -23 3 -13 -4 -17 -32 -17 -45 0 -66 22 -66
71 0 21 -4 39 -10 39 -5 0 -10 9 -10 20 0 11 5 20 10 20 6 0 10 9 10 20 0 13
7 20 20 20 13 0 20 -7 20 -19z m1580 -1 c0 -16 7 -20 30 -20 23 0 30 -4 30
-20 0 -16 -7 -20 -31 -20 -28 0 -30 -2 -27 -32 2 -28 8 -34 31 -36 40 -5 38
-42 -2 -42 -53 0 -61 8 -61 61 0 37 -4 49 -15 49 -8 0 -15 9 -15 20 0 11 7 20
15 20 8 0 15 9 15 20 0 11 7 20 15 20 8 0 15 -9 15 -20z m-1800 -95 c0 -68 -2
-75 -20 -75 -18 0 -20 7 -20 68 0 71 4 82 27 82 10 0 13 -19 13 -75z m135 55
c0 -11 -9 -14 -32 -12 -44 5 -42 -12 5 -35 42 -20 51 -43 27 -67 -18 -17 -81
-21 -105 -6 -23 14 -3 24 42 21 50 -3 49 16 -2 33 -28 9 -36 17 -38 40 -4 36
12 47 63 44 28 -2 40 -8 40 -18z m284 -6 c34 -44 28 -54 -34 -54 -30 0 -55 -4
-55 -9 0 -19 31 -33 60 -28 32 7 51 -10 29 -24 -8 -5 -29 -9 -48 -9 -45 0 -81
33 -81 74 0 69 87 103 129 50z m239 14 c7 -7 12 -35 12 -74 0 -57 -2 -64 -20
-64 -16 0 -19 8 -22 58 -3 49 -6 57 -23 57 -17 0 -20 -8 -23 -57 -3 -49 -6
-58 -22 -58 -16 0 -19 9 -22 58 -3 49 -6 57 -23 57 -17 0 -20 -8 -23 -57 -3
-50 -6 -58 -22 -58 -18 0 -20 7 -20 68 0 38 3 71 6 75 10 10 188 5 202 -5z
m153 -9 c16 -16 19 -30 17 -72 l-3 -52 -53 -3 c-60 -3 -82 8 -82 44 0 28 26
44 71 44 28 0 30 2 18 16 -9 11 -23 14 -46 11 -35 -6 -41 1 -21 21 19 19 76
14 99 -9z m358 -5 c34 -44 28 -54 -34 -54 -30 0 -55 -4 -55 -9 0 -19 31 -33
60 -28 32 7 51 -10 29 -24 -8 -5 -29 -9 -48 -9 -45 0 -81 33 -81 74 0 69 87
103 129 50z m400 0 c34 -44 28 -54 -34 -54 -30 0 -55 -4 -55 -9 0 -19 31 -33
60 -28 32 7 51 -10 29 -24 -8 -5 -29 -9 -48 -9 -45 0 -81 33 -81 74 0 69 87
103 129 50z m149 5 c2 -12 -5 -14 -33 -11 -47 6 -44 -11 5 -31 32 -12 40 -21
40 -40 0 -13 -6 -30 -14 -36 -21 -17 -100 -10 -104 9 -2 12 6 15 38 12 51 -5
52 11 3 35 -41 19 -52 45 -32 69 17 20 93 15 97 -7z m274 4 c13 -12 18 -31 18
-75 l0 -58 -54 0 c-55 0 -86 16 -86 45 0 20 40 45 73 45 19 0 27 4 24 13 -2 7
-21 12 -45 11 -37 -1 -40 1 -31 18 13 23 75 24 101 1z m173 -8 c14 -13 25 -36
25 -50 0 -38 -42 -75 -85 -75 -46 0 -75 29 -75 75 0 70 84 102 135 50z m357 8
c9 -10 19 -28 22 -40 7 -22 5 -23 -48 -23 -31 0 -56 -4 -56 -9 0 -19 30 -33
58 -26 21 4 31 2 35 -9 7 -17 -13 -26 -59 -26 -45 0 -74 29 -74 75 0 22 8 43
20 55 25 25 81 27 102 3z m-1943 -282 c27 -17 6 -36 -37 -33 -71 6 -106 -56
-63 -109 15 -19 27 -23 65 -21 33 1 46 -2 46 -12 0 -29 -73 -35 -120 -11 -33
17 -55 71 -45 115 13 60 105 102 154 71z m699 -99 c3 -97 2 -102 -18 -102 -19
0 -20 6 -20 106 0 95 2 105 18 102 15 -3 17 -17 20 -106z m252 83 c-7 -8 -19
-15 -26 -15 -8 0 -11 6 -8 15 4 8 15 15 26 15 17 0 18 -3 8 -15z m210 0 c0 -8
-6 -15 -14 -15 -17 0 -28 14 -19 24 12 12 33 6 33 -9z m-390 -15 c0 -16 7 -20
30 -20 23 0 30 -4 30 -20 0 -16 -7 -20 -31 -20 -28 0 -30 -2 -27 -32 2 -28 8
-34 31 -36 40 -5 38 -42 -2 -42 -53 0 -61 8 -61 61 0 37 -4 49 -15 49 -8 0
-15 9 -15 20 0 11 7 20 15 20 8 0 15 9 15 20 0 11 7 20 15 20 8 0 15 -9 15
-20z m-603 -42 c50 -47 16 -128 -54 -128 -41 0 -83 38 -83 75 0 63 89 98 137
53z m157 6 c11 -10 16 -34 16 -75 0 -52 -2 -59 -20 -59 -16 0 -19 8 -22 58 -3
50 -6 57 -25 60 -22 3 -23 0 -23 -57 0 -54 -2 -61 -20 -61 -18 0 -20 7 -20 75
l0 75 49 0 c32 0 55 -6 65 -16z m151 -4 c0 -11 -9 -14 -32 -12 -44 5 -42 -12
5 -35 42 -20 51 -43 27 -67 -18 -17 -81 -21 -105 -6 -23 14 -3 24 42 21 50 -3
49 16 -2 33 -28 9 -36 17 -38 40 -4 36 12 47 63 44 28 -2 40 -8 40 -18z m65
-24 c0 -60 8 -76 36 -76 23 0 24 3 24 60 0 53 2 60 20 60 18 0 20 -7 20 -75
l0 -75 -54 0 c-63 0 -76 12 -83 75 -6 52 0 75 22 75 11 0 15 -11 15 -44z m437
22 c50 -47 16 -128 -54 -128 -41 0 -83 38 -83 75 0 63 89 98 137 53z m131 0
c3 -13 -3 -18 -22 -18 -25 0 -26 -3 -26 -55 0 -48 -2 -55 -20 -55 -18 0 -20 7
-20 69 0 58 3 70 18 74 34 10 67 2 70 -15z m52 -53 c0 -68 -2 -75 -20 -75 -18
0 -20 7 -20 75 0 68 2 75 20 75 18 0 20 -7 20 -75z m155 50 c14 -13 25 -36 25
-50 0 -38 -42 -75 -85 -75 -46 0 -75 29 -75 75 0 70 84 102 135 50z"/>
<path d="M1906 4114 c-14 -13 -16 -54 -16 -288 l0 -273 25 5 25 4 0 234 c0
221 1 235 20 254 20 20 33 20 590 20 557 0 570 0 590 -20 19 -19 20 -33 20
-455 0 -350 3 -435 13 -435 36 0 37 15 37 487 0 447 -1 463 -19 473 -13 6
-233 10 -645 10 -554 0 -626 -2 -640 -16z"/>
<path d="M2003 4023 c-10 -3 -13 -60 -13 -233 0 -228 0 -229 25 -266 22 -32
25 -48 25 -120 0 -74 3 -86 26 -113 l26 -31 229 0 229 0 -20 40 c-22 44 -25
87 -7 111 40 52 116 48 149 -7 11 -19 22 -34 24 -34 2 0 4 45 4 100 0 98 0
100 -23 100 -13 0 -34 -11 -47 -25 -31 -33 -79 -33 -109 -1 -13 14 -33 26 -45
28 -11 2 -22 11 -24 21 -3 12 5 19 27 23 17 4 31 11 31 16 0 5 16 16 35 24 31
13 39 13 65 -1 17 -9 30 -20 30 -25 0 -6 14 -10 30 -10 27 0 30 3 30 34 0 19
3 41 6 50 5 13 -11 16 -123 18 -120 3 -128 4 -128 23 0 19 8 20 227 23 227 2
227 2 252 27 32 32 70 32 101 0 32 -31 32 -69 0 -100 -31 -32 -69 -32 -101 0
-15 15 -36 25 -54 25 -29 0 -30 -1 -30 -50 l0 -50 93 0 c97 0 124 -8 114 -34
-5 -12 -26 -16 -104 -18 l-98 -3 -3 -37 c-3 -34 -1 -38 20 -38 13 -1 34 -7 48
-15 14 -8 42 -14 62 -15 27 0 42 -7 56 -25 12 -15 30 -25 46 -25 l26 0 0 304
c0 268 -2 305 -16 310 -19 7 -1073 7 -1091 -1z m627 -78 l23 -25 199 0 c173 0
199 -2 205 -16 3 -9 0 -20 -8 -25 -8 -5 -101 -9 -207 -9 -187 0 -194 -1 -212
-22 -24 -30 -86 -30 -109 -2 -9 12 -29 24 -44 28 -34 8 -34 39 -1 44 12 2 32
14 45 28 30 32 78 32 109 -1z m-341 -49 c107 -88 114 -96 100 -112 -7 -8 -20
-12 -30 -9 -17 6 -19 1 -19 -38 0 -31 5 -47 15 -51 20 -7 19 -32 -1 -40 -9 -3
-69 -6 -134 -6 -65 0 -125 3 -134 6 -17 7 -22 44 -6 44 6 0 10 19 10 43 0 39
-3 43 -22 43 -44 -2 -23 33 62 104 46 38 86 70 89 70 2 0 34 -24 70 -54z"/>
<path d="M2553 3904 c-3 -8 -1 -20 5 -26 16 -16 42 -2 42 22 0 24 -38 28 -47
4z"/>
<path d="M2178 3859 c-37 -30 -38 -32 -38 -100 0 -67 1 -69 25 -69 21 0 25 5
25 29 0 31 22 57 40 46 5 -3 10 -22 10 -41 0 -31 2 -34 30 -34 l30 0 0 68 c0
66 -1 68 -40 100 -21 17 -40 32 -42 32 -2 -1 -20 -14 -40 -31z"/>
<path d="M2964 3755 c-4 -9 -2 -21 4 -27 15 -15 44 -1 40 19 -4 23 -36 29 -44
8z"/>
<path d="M2756 3704 c-3 -9 -6 -117 -6 -240 0 -214 -1 -224 -19 -224 -14 0
-33 24 -66 81 -41 72 -49 80 -73 77 -18 -2 -28 -10 -30 -24 -2 -11 37 -105 87
-207 l90 -187 165 0 165 0 18 58 c13 42 18 90 18 187 0 123 -1 130 -20 130
-14 0 -21 -8 -25 -30 -4 -22 -11 -30 -25 -30 -17 0 -21 8 -25 55 -4 47 -8 55
-27 58 -20 3 -22 -1 -25 -55 -3 -51 -6 -58 -25 -61 -22 -3 -23 0 -23 60 0 75
-11 98 -37 82 -14 -8 -19 -27 -21 -78 -3 -58 -5 -66 -22 -66 -19 0 -20 8 -20
203 0 203 -4 227 -36 227 -6 0 -15 -7 -18 -16z"/>
<path d="M2554 3606 c-8 -21 3 -36 27 -36 15 0 20 6 17 22 -4 27 -35 37 -44
14z"/>
<path d="M1803 3563 c-15 -23 -18 -50 -17 -178 0 -146 1 -152 37 -254 23 -65
37 -123 37 -153 l0 -48 172 2 171 3 24 69 c34 103 33 106 -31 106 -49 0 -55
-2 -58 -22 -2 -15 -10 -23 -23 -23 -17 0 -20 8 -23 61 -3 56 -7 65 -52 122
l-50 61 0 90 c0 86 -1 91 -25 107 -23 15 -27 15 -50 0 -23 -15 -25 -22 -25
-100 0 -97 -5 -116 -31 -116 -18 0 -19 9 -19 150 0 91 -4 150 -10 150 -5 0
-18 -12 -27 -27z"/>
<path d="M2138 3185 l4 -25 229 0 229 0 -12 25 -11 25 -222 0 -222 0 5 -25z"/>
<path d="M2705 2907 c-3 -12 -5 -52 -3 -87 l3 -65 200 0 200 0 0 85 0 85 -197
3 -198 2 -5 -23z m90 -82 c0 -28 -29 -25 -33 3 -3 19 0 23 15 20 10 -2 18 -12
18 -23z"/>
<path d="M1840 2861 c-11 -21 -14 -120 -4 -145 5 -14 33 -16 204 -16 171 0
199 2 204 16 11 28 6 140 -6 152 -8 8 -67 12 -200 12 -175 0 -188 -1 -198 -19z
m93 -75 c8 -20 -20 -43 -35 -28 -14 14 -3 42 16 42 7 0 16 -6 19 -14z"/>
<path d="M1018 2300 c-26 -27 -30 -36 -25 -68 16 -98 136 -111 167 -18 30 92
-73 154 -142 86z"/>
<path d="M2228 2300 c-26 -27 -30 -36 -25 -68 16 -98 136 -111 167 -18 30 92
-73 154 -142 86z"/>
<path d="M2748 2330 c-10 -6 -22 -20 -28 -30 -10 -19 -7 -20 60 -20 38 0 70 4
70 8 0 34 -69 62 -102 42z"/>
<path d="M3535 2305 c-32 -31 -34 -96 -5 -125 42 -42 116 -33 139 16 30 67 -6
134 -74 134 -25 0 -44 -8 -60 -25z"/>
<path d="M4190 2207 c-56 -28 -24 -67 56 -67 32 0 34 2 34 34 0 46 -37 60 -90
33z"/>
<path d="M2262 1838 c-27 -27 -7 -78 30 -78 15 0 18 8 18 45 0 37 -3 45 -18
45 -10 0 -23 -5 -30 -12z"/>
<path d="M3616 1835 c-9 -9 -16 -23 -16 -30 0 -20 28 -45 51 -45 17 0 20 6 17
42 -3 48 -24 61 -52 33z"/>
<path d="M1670 1835 c-11 -13 -7 -15 25 -15 32 0 36 2 25 15 -7 8 -18 15 -25
15 -7 0 -18 -7 -25 -15z"/>
<path d="M2060 1775 c0 -10 10 -15 30 -15 20 0 30 5 30 15 0 10 -10 15 -30 15
-20 0 -30 -5 -30 -15z"/>
<path d="M2420 1835 c-11 -13 -7 -15 25 -15 32 0 36 2 25 15 -7 8 -18 15 -25
15 -7 0 -18 -7 -25 -15z"/>
<path d="M2820 1835 c-11 -13 -7 -15 25 -15 32 0 36 2 25 15 -7 8 -18 15 -25
15 -7 0 -18 -7 -25 -15z"/>
<path d="M3242 1778 c7 -20 58 -23 58 -4 0 11 -10 16 -31 16 -20 0 -29 -4 -27
-12z"/>
<path d="M3412 1838 c-24 -24 -8 -78 24 -78 17 0 44 28 44 45 0 17 -27 45 -44
45 -6 0 -17 -5 -24 -12z"/>
<path d="M3777 1843 c-15 -15 -5 -23 29 -23 31 0 35 2 24 15 -13 16 -42 20
-53 8z"/>
<path d="M1996 1484 c-9 -8 -16 -22 -16 -29 0 -17 27 -45 44 -45 19 0 36 22
36 45 0 41 -36 58 -64 29z"/>
<path d="M2806 1484 c-9 -8 -16 -22 -16 -29 0 -17 27 -45 44 -45 19 0 36 22
36 45 0 41 -36 58 -64 29z"/>
<path d="M3142 1488 c-24 -24 -8 -78 24 -78 17 0 44 28 44 45 0 17 -27 45 -44
45 -6 0 -17 -5 -24 -12z"/>
</g>
</svg>
