<?xml version="1.0" standalone="no"?>
<!DOCTYPE svg PUBLIC "-//W3C//DTD SVG 20010904//EN"
 "http://www.w3.org/TR/2001/REC-SVG-20010904/DTD/svg10.dtd">
<svg version="1.0" xmlns="http://www.w3.org/2000/svg"
 width="500.000000pt" height="500.000000pt" viewBox="0 0 500.000000 500.000000"
 preserveAspectRatio="xMidYMid meet">

<g transform="translate(0.000000,500.000000) scale(0.100000,-0.100000)"
fill="#000000" stroke="none">
<path d="M2525 4891 c-60 -16 -112 -51 -223 -151 l-113 -103 -144 32 c-162 35
-221 38 -288 15 -55 -19 -131 -83 -156 -133 -11 -20 -40 -100 -65 -176 l-46
-140 -159 -53 c-140 -47 -166 -59 -209 -97 -102 -91 -116 -185 -64 -415 l30
-134 -105 -116 c-128 -140 -145 -171 -151 -271 -6 -107 17 -154 150 -303 l106
-117 -19 -87 c-45 -204 -50 -236 -43 -281 16 -110 92 -205 195 -242 32 -12 59
-23 59 -24 0 -1 -11 -28 -25 -60 -37 -83 -55 -168 -55 -265 0 -169 59 -311
179 -431 76 -75 171 -139 208 -139 49 0 57 53 12 78 -220 120 -336 321 -315
544 29 317 336 544 646 477 58 -12 80 -2 80 37 0 28 -24 42 -85 50 -25 4 -45
11 -45 16 0 21 63 127 110 186 95 117 231 209 390 264 91 31 102 32 245 33
169 0 230 -12 352 -69 266 -126 447 -374 479 -656 6 -55 5 -58 -16 -62 -31 -4
-48 -33 -34 -55 9 -14 31 -19 107 -24 124 -7 200 -42 280 -129 75 -81 100
-147 101 -265 1 -81 -2 -97 -31 -157 -58 -123 -161 -203 -293 -228 -36 -7
-369 -10 -947 -9 -491 0 -897 -2 -903 -6 -17 -11 -11 -54 9 -65 12 -6 131 -10
315 -10 163 0 296 -3 296 -6 0 -3 -43 -52 -96 -107 -104 -109 -124 -143 -124
-207 0 -56 20 -99 63 -137 35 -31 62 -40 136 -45 l33 -3 -96 -118 c-155 -189
-166 -205 -166 -242 0 -77 84 -117 151 -72 51 35 566 452 612 495 41 40 48 75
18 92 -26 13 -27 13 -48 -9 -51 -55 -639 -519 -646 -512 -6 6 54 88 147 201
86 106 156 200 156 209 0 33 -22 41 -112 41 -99 0 -137 13 -156 55 -28 62 -22
73 136 243 l115 122 158 0 c88 0 159 -2 159 -4 0 -2 -36 -39 -80 -82 -65 -63
-80 -83 -78 -104 3 -24 7 -25 76 -31 49 -4 81 -12 100 -25 47 -35 51 -35 72
-14 19 19 19 23 5 49 -8 17 -34 38 -62 52 l-47 23 74 68 74 68 317 0 c336 0
387 5 476 46 291 137 365 521 146 755 -25 27 -62 59 -81 71 l-35 22 128 43
c172 57 216 87 262 177 40 78 40 139 3 314 l-33 152 79 86 c117 128 141 160
165 222 25 68 22 145 -9 214 -10 24 -67 98 -126 163 -58 65 -106 122 -106 127
0 4 14 71 30 148 43 201 38 258 -26 352 -42 60 -91 88 -258 143 l-151 51 -50
150 c-55 167 -82 216 -143 258 -94 65 -157 69 -355 26 -76 -16 -141 -30 -145
-30 -5 0 -62 48 -127 106 -65 59 -138 115 -161 125 -48 22 -145 32 -189 20z
m148 -117 c18 -9 89 -68 158 -130 80 -72 135 -114 149 -114 12 0 85 14 163 31
78 18 163 32 188 32 54 -1 120 -32 147 -70 11 -16 43 -100 72 -188 29 -88 60
-167 69 -176 9 -9 88 -40 176 -69 173 -56 206 -74 232 -123 33 -65 33 -92 -3
-265 -19 -91 -34 -175 -34 -185 0 -11 51 -76 114 -146 128 -143 146 -171 146
-236 0 -69 -18 -99 -144 -239 -79 -87 -116 -136 -116 -152 0 -13 14 -85 31
-161 64 -287 43 -323 -236 -412 -90 -28 -167 -56 -170 -61 -10 -16 -62 -11
-69 6 -14 36 -3 59 55 122 154 168 273 410 320 647 21 106 19 408 -4 512 -97
451 -393 809 -812 984 -154 64 -275 90 -461 96 -190 7 -311 -9 -470 -62 -216
-71 -392 -183 -553 -350 -253 -263 -375 -567 -375 -935 0 -279 70 -512 221
-743 25 -37 44 -69 42 -70 -38 -25 -92 -67 -121 -95 l-36 -34 -54 17 c-78 25
-123 58 -147 107 -28 59 -27 86 14 276 20 90 32 169 28 176 -5 8 -61 73 -125
146 -125 140 -146 179 -133 249 11 57 30 85 139 205 57 63 109 123 115 134 9
16 3 56 -24 181 -40 184 -42 218 -15 270 33 65 70 87 236 141 85 27 163 54
174 60 12 6 36 65 73 182 47 146 61 178 89 204 71 68 114 71 322 25 77 -17
150 -31 162 -31 14 0 69 42 150 116 71 65 143 123 159 130 42 18 120 17 158
-2z m190 -433 c357 -81 668 -325 835 -656 188 -373 171 -837 -44 -1186 -51
-83 -123 -179 -134 -179 -4 0 -13 19 -20 43 -19 64 -83 185 -133 252 -33 44
-43 63 -35 72 6 7 27 54 48 105 21 51 42 93 47 94 4 1 20 5 35 8 15 4 43 20
63 37 43 38 49 88 13 113 -30 21 -44 20 -69 -5 l-20 -20 5 33 c22 145 12 311
-29 456 -35 121 -121 292 -197 387 -150 188 -367 327 -594 380 -67 16 -174 63
-174 77 0 14 40 17 175 13 88 -3 173 -12 228 -24z m-513 -10 c0 -30 44 -76
105 -110 56 -32 93 -39 111 -21 7 7 22 1 47 -17 32 -25 36 -32 31 -60 -6 -29
0 -39 46 -89 106 -117 192 -273 231 -421 26 -98 36 -299 20 -402 -7 -41 -26
-117 -43 -169 -30 -91 -32 -94 -57 -87 -14 4 -92 9 -172 12 -111 4 -164 1
-223 -11 -278 -57 -518 -246 -637 -501 l-31 -64 -42 5 c-30 5 -52 1 -75 -11
-18 -9 -39 -14 -46 -11 -20 7 -86 109 -134 204 -163 324 -174 712 -31 1045 82
189 236 384 401 507 96 71 248 150 359 185 47 15 90 28 95 30 28 9 45 4 45
-14z"/>
<path d="M3617 3092 c-12 -13 -17 -37 -17 -80 0 -55 3 -63 26 -79 24 -15 29
-15 53 -2 23 13 26 21 29 78 2 49 -1 68 -14 82 -22 24 -56 24 -77 1z"/>
<path d="M1702 3464 c-20 -14 -23 -23 -20 -77 3 -56 6 -63 31 -77 27 -14 29
-14 54 14 22 26 25 37 20 80 -6 69 -39 93 -85 60z"/>
<path d="M2580 3460 c-30 -30 -27 -100 4 -137 24 -27 26 -27 53 -13 25 14 28
21 31 77 3 54 0 63 -20 77 -30 21 -44 20 -68 -4z"/>
<path d="M2032 3268 c-23 -23 -14 -66 22 -102 73 -73 171 -73 243 -1 44 43 55
79 31 103 -22 22 -63 14 -91 -18 -20 -22 -36 -30 -61 -30 -27 0 -39 7 -56 30
-23 32 -65 41 -88 18z"/>
<path d="M2313 2242 c-11 -7 -17 -26 -14 -49 1 -15 84 -63 108 -63 11 0 24 5
31 12 23 23 12 48 -35 78 -49 30 -69 35 -90 22z"/>
<path d="M2997 2220 c-26 -16 -47 -36 -47 -44 0 -53 43 -60 105 -18 43 30 54
54 35 77 -18 22 -41 18 -93 -15z"/>
<path d="M2321 2096 c-18 -22 -10 -107 12 -120 29 -19 52 4 55 58 3 51 -9 76
-38 76 -10 0 -23 -6 -29 -14z"/>
<path d="M3016 2088 c-30 -43 -13 -118 27 -118 34 0 47 19 47 66 0 67 -43 97
-74 52z"/>
<path d="M2627 2014 c-16 -16 -6 -66 18 -89 51 -52 140 -13 133 58 l-3 32 -70
3 c-39 1 -74 0 -78 -4z"/>
<path d="M3235 1059 c-116 -19 -183 -68 -205 -149 -32 -120 91 -242 212 -209
88 23 137 104 153 252 7 62 6 67 -18 91 -28 28 -51 30 -142 15z m75 -110 c0
-99 -46 -169 -112 -169 -85 0 -122 100 -57 154 17 14 43 29 57 32 15 3 32 7
37 9 6 2 25 4 43 4 29 1 32 -2 32 -30z"/>
<path d="M1840 970 c-83 -28 -122 -91 -105 -169 16 -73 98 -122 172 -102 68
18 105 76 118 183 10 84 -7 108 -78 108 -28 -1 -77 -9 -107 -20z m97 -105 c-2
-25 -13 -55 -22 -65 -26 -29 -71 -26 -92 6 -15 24 -15 29 -2 52 9 17 30 31 54
38 66 20 68 19 62 -31z"/>
<path d="M1564 635 c-145 -31 -224 -112 -224 -227 0 -67 27 -126 75 -165 73
-61 167 -67 250 -19 76 45 119 143 131 301 6 73 4 82 -15 103 -19 19 -32 22
-89 21 -37 0 -95 -7 -128 -14z m148 -120 c-10 -179 -103 -280 -210 -228 -45
22 -82 75 -82 117 0 47 32 97 76 120 43 23 144 45 189 43 29 -2 29 -3 27 -52z"/>
<path d="M2848 546 c-64 -17 -122 -57 -141 -99 -41 -86 -6 -196 76 -236 53
-26 99 -26 154 -2 54 25 89 79 108 167 19 89 19 134 -1 162 -13 19 -24 22 -82
21 -37 0 -88 -6 -114 -13z m127 -103 c-19 -112 -45 -157 -94 -168 -34 -7 -85
15 -101 44 -17 33 -11 78 13 106 24 28 96 53 155 54 33 1 33 1 27 -36z"/>
<path d="M3402 539 c-86 -17 -140 -66 -148 -135 -10 -76 59 -154 135 -154 88
0 146 71 157 191 6 59 4 69 -15 88 -23 23 -54 25 -129 10z m58 -116 c-3 -21
-12 -48 -19 -60 -14 -28 -56 -40 -77 -22 -59 49 -18 117 72 118 31 1 31 0 24
-36z"/>
</g>
</svg>
