<?xml version="1.0" standalone="no"?>
<!DOCTYPE svg PUBLIC "-//W3C//DTD SVG 20010904//EN"
 "http://www.w3.org/TR/2001/REC-SVG-20010904/DTD/svg10.dtd">
<svg version="1.0" xmlns="http://www.w3.org/2000/svg"
 width="500.000000pt" height="500.000000pt" viewBox="0 0 500.000000 500.000000"
 preserveAspectRatio="xMidYMid meet">

<g transform="translate(0.000000,500.000000) scale(0.100000,-0.100000)"
fill="#000000" stroke="none">
<path d="M0 2500 l0 -2500 2500 0 2500 0 0 2500 0 2500 -2500 0 -2500 0 0
-2500z m670 2471 c0 -14 -18 -23 -30 -16 -6 4 -8 11 -5 16 8 12 35 12 35 0z
m1875 -641 l0 -95 -90 1 c-49 1 -115 5 -145 10 -30 5 -75 6 -99 2 -33 -6 -63
-3 -116 12 -39 11 -96 20 -126 20 -62 0 -104 13 -171 52 -34 21 -54 26 -76 22
-26 -5 -31 -3 -41 26 -6 18 -8 36 -5 41 3 5 190 8 437 7 l432 -3 0 -95z m640
90 c-4 -6 -25 -20 -47 -31 -22 -11 -71 -40 -109 -65 -38 -24 -77 -44 -87 -44
-10 0 -33 -11 -52 -25 -29 -21 -45 -25 -107 -25 l-73 0 0 100 0 100 241 0
c160 0 238 -3 234 -10z m228 -25 c-3 -41 -37 -65 -94 -65 -25 0 -54 -7 -65
-15 -13 -10 -45 -14 -99 -15 -88 0 -89 6 -10 51 22 12 63 35 90 51 43 24 59
28 115 26 l65 -3 -2 -30z m-756 -455 c3 -11 9 -20 14 -20 5 0 1 -8 -8 -18 -17
-17 -20 -17 -40 -3 -27 19 -28 25 -7 45 21 21 35 20 41 -4z m2184 -1123 c-16
-16 -32 4 -24 31 l6 23 14 -21 c11 -16 12 -25 4 -33z m-2043 -2086 c9 -6 29
-12 44 -15 33 -7 111 -88 119 -124 18 -75 23 -72 -121 -72 l-130 0 0 104 c0
101 1 105 23 109 39 8 47 7 65 -2z m1152 -198 c0 -7 -9 -13 -20 -13 -14 0 -20
7 -20 23 0 13 3 27 7 31 9 8 33 -22 33 -41z"/>
</g>
</svg>
